<svg xmlns="http://www.w3.org/2000/svg" width="127" height="48" fill="none" id="asana">
  <path fill="#0D0E10" fill-rule="evenodd" d="M122.957 31.98c.076.87.771 1.977 1.977 1.977h.704a.5.5 0 0 0 .498-.498V17.953h-.003a.497.497 0 0 0-.495-.47h-2.184c-.264 0-.48.21-.494.47h-.003v1.26c-1.339-1.65-3.449-2.334-5.565-2.334-4.811 0-8.71 3.902-8.71 8.716 0 4.815 3.899 8.717 8.71 8.717 2.116 0 4.423-.82 5.565-2.334zm-5.557-.718c-3.059 0-5.539-2.537-5.539-5.667s2.48-5.665 5.539-5.665c3.06 0 5.54 2.536 5.54 5.665s-2.48 5.667-5.54 5.667M105.919 24.49c0-4.523-2.851-7.574-7.397-7.574-2.17 0-3.95 1.256-4.578 2.335-.136-.844-.583-1.73-1.971-1.73h-.707a.5.5 0 0 0-.497.497v15.507h.002c.015.261.23.47.495.47h2.185a.5.5 0 0 0 .097-.01q.022-.005.042-.012.026-.007.049-.015.029-.014.055-.03l.027-.014a1 1 0 0 0 .061-.049l.01-.008a.495.495 0 0 0 .153-.332h.002v-9.16a4.397 4.397 0 0 1 4.396-4.398 4.397 4.397 0 0 1 4.395 4.399l.002 7.656v-.003l.002.021v1.485h.002c.015.261.231.47.495.47h2.185a.5.5 0 0 0 .097-.01q.019-.004.038-.01.027-.008.053-.017.027-.013.051-.028.017-.007.031-.016.03-.022.057-.045l.014-.012a.4.4 0 0 0 .06-.07.5.5 0 0 0 .093-.26v-.002h.003zM83.168 31.98c.076.87.772 1.977 1.977 1.977h.705a.5.5 0 0 0 .497-.498V17.953h-.003a.497.497 0 0 0-.494-.47h-2.185c-.264 0-.48.21-.495.47h-.002v1.26c-1.339-1.65-3.45-2.334-5.565-2.334-4.81 0-8.71 3.902-8.71 8.716 0 4.815 3.9 8.717 8.71 8.717 2.116 0 4.422-.82 5.565-2.334zm-5.557-.718c-3.059 0-5.54-2.537-5.54-5.667s2.481-5.665 5.54-5.665 5.54 2.536 5.54 5.665-2.48 5.667-5.54 5.667M55.974 29.76c1.458 1.01 3.05 1.502 4.58 1.502 1.457 0 2.964-.756 2.964-2.072 0-1.758-3.283-2.03-5.346-2.733-2.063-.701-3.84-2.152-3.84-4.5 0-3.594 3.2-5.079 6.187-5.079 1.892 0 3.844.625 5.11 1.52.436.33.17.71.17.71l-1.208 1.727c-.135.194-.373.362-.714.152s-1.536-1.058-3.358-1.058-2.92.843-2.92 1.886c0 1.252 1.426 1.646 3.097 2.072 2.912.786 6.089 1.73 6.089 5.303 0 3.166-2.96 5.123-6.231 5.123-2.479 0-4.59-.707-6.36-2.007-.368-.37-.11-.712-.11-.712l1.202-1.719c.245-.32.553-.209.688-.115M47.575 31.98c.076.87.772 1.977 1.977 1.977h.705a.5.5 0 0 0 .497-.498V17.953h-.003a.497.497 0 0 0-.494-.47h-2.184c-.265 0-.48.21-.495.47h-.003v1.26c-1.338-1.65-3.449-2.334-5.565-2.334-4.81 0-8.71 3.902-8.71 8.716 0 4.815 3.9 8.717 8.71 8.717 2.116 0 4.423-.82 5.565-2.334zm-5.556-.718c-3.06 0-5.54-2.537-5.54-5.667s2.48-5.665 5.54-5.665 5.539 2.536 5.539 5.665-2.48 5.667-5.54 5.667" clip-rule="evenodd"></path>
  <path fill="#F06A6A" fill-rule="evenodd" d="M21.09 26.188a5.861 5.861 0 1 0 0 11.723 5.861 5.861 0 0 0 0-11.723m-15.229 0a5.861 5.861 0 1 0 0 11.723 5.862 5.862 0 1 0 0-11.722m13.476-7.327a5.862 5.862 0 1 1-11.723 0 5.862 5.862 0 0 1 11.723 0" clip-rule="evenodd"></path>
</svg>
