<svg xmlns="http://www.w3.org/2000/svg" viewBox="0 0 64 64" id="notion">
  <path fill="#070707" fill-rule="evenodd" d="m5.2,47.56s8,10.37,8.48,10.83c1.16,1.11,2.73,1.69,4.33,1.6,8.37-.42,27.54-1.38,35.57-1.78,3.11-.16,5.55-2.72,5.56-5.83l.1-35.5c0-1.99-1.03-3.83-2.72-4.87t0,0c-2.99-1.84-8.91-5.49-10.7-6.68-1.46-.97-3.2-1.43-4.96-1.32-5.96.38-23.45,1.51-30.85,1.98-2.96.19-5.24,2.62-5.24,5.54v34.78c0,.45.15.89.43,1.24h0Zm50.01-28.91v.02l-.1,33.7c0,.97-.77,1.77-1.74,1.82l-35.57,1.78c-.5.03-.99-.16-1.35-.5-.36-.34-.57-.82-.57-1.32V20.71c0-.97.75-1.77,1.72-1.82l35.67-2.06c.5-.03.99.15,1.36.5.36.34.57.82.57,1.32h0Zm-11.98,21.42v-13.72c-.63-.72-1.63-.67-3.07-1.11-.1-.03-.19-.11-.23-.21-.04-.1-.03-.22.03-.31,1.72-2.53,6.63-.95,9.83-1.96.09-.03.2-.02.28.05.08.07.11.17.09.27-.31,1.39-1.4,2.1-2.95,2.4v22.57c0,.75-.45,1.44-1.15,1.72-.64.26-1.31.54-1.31.54-1.54.8-3.43.29-4.37-1.17l-11.46-17.87v16.27c.62.72,1.63.67,3.07,1.11.1.03.19.11.23.21.04.1.03.22-.03.31-1.73,2.53-6.63.95-9.83,1.96-.09.04-.2.02-.28-.05-.08-.06-.11-.17-.09-.27.31-1.39,1.4-2.1,2.95-2.4v-21.31l-3.02-.29s.21-2.45,3.09-2.73c1.42-.14,5.13-.3,6.47-.36.3-.01.59.13.77.38l10.99,15.95h0ZM15.03,14.28c.55.42,1.24.63,1.93.59,5.09-.29,26.82-1.53,32.21-1.84.17-.01.31-.13.35-.29.04-.16-.03-.33-.17-.42-2.39-1.49-4.74-2.95-5.76-3.63-.73-.48-1.6-.71-2.48-.66,0,0-24.7,1.36-29.78,1.91-.64.07-.78.3-.8.39-.09.31.02.54.27.74,1.02.78,3.07,2.33,4.23,3.21h0Z"></path>
</svg>
